<svg xmlns="http://www.w3.org/2000/svg" viewBox="0 0 64 64"><title>Artboard-11</title><g id="Clipboard"><path d="M6,63a2.002,2.002,0,0,1-2-2V1H50V63Z" style="fill:#337fef"/><rect x="8" y="11" width="38" height="44" style="fill:#e6ecff"/><path d="M6,63a2.002,2.002,0,0,1-2-2V57a2.002,2.002,0,0,1,2-2H54l6.0181,4.0117L54,63Z" style="fill:#fcd354"/><polygon points="54 63 60.018 59.012 54 55 54 63" style="fill:#ffb125"/><path d="M6,63a2,2,0,0,1-2-2V55h7v8Z" style="fill:#ffb125"/><rect x="12" y="43" width="8" height="8" style="fill:#48acff"/><rect x="12" y="31" width="8" height="8" style="fill:#48acff"/><rect x="12" y="19" width="8" height="8" style="fill:#48acff"/><path d="M27,15a7.0078,7.0078,0,0,1-7-7V7H12V1H42V7H34V8A7.0078,7.0078,0,0,1,27,15Z" style="fill:#48acff"/><circle cx="27" cy="8" r="3" style="fill:#337fef"/><path d="M60.5547,58.168l-6-4A1.1911,1.1911,0,0,0,54,54H8a1,1,0,0,0,0,2h2v6H6a1.0013,1.0013,0,0,1-1-1V2h6V7a1,1,0,0,0,1,1h7a7.9612,7.9612,0,0,0,.2633,2H8a1,1,0,0,0-1,1V51a1,1,0,0,0,2,0V12H20.0825a7.9815,7.9815,0,0,0,13.835,0H45V51a1,1,0,0,0,2,0V11a1,1,0,0,0-1-1H34.7367A7.9612,7.9612,0,0,0,35,8h7a1,1,0,0,0,1-1V2h6V51a1,1,0,0,0,2,0V1a1,1,0,0,0-1-1H4A1,1,0,0,0,3,1V61a3.0033,3.0033,0,0,0,3,3H54a1.19,1.19,0,0,0,.5547-.168l6-4a1,1,0,0,0,0-1.664ZM41,2V6H34a1,1,0,0,0-1,1V8A6,6,0,0,1,21,8V7a1,1,0,0,0-1-1H13V2ZM53,56v2H12V56ZM12,62V60H53v2H12Zm43-.8685v-4.263L58.1973,59Z" style="fill:#231e23"/><path d="M11,51a1,1,0,0,0,1,1h8a1,1,0,0,0,1-1V49a1,1,0,0,0-2,0v1H13V44h5a1,1,0,0,0,0-2H12a1,1,0,0,0-1,1Z" style="fill:#231e23"/><path d="M22.707,42.293a.9994.9994,0,0,0-1.414,0L17,46.5859,15.707,45.293a1,1,0,0,0-1.414,1.414l2,2a.9995.9995,0,0,0,1.414,0l5-5A.9994.9994,0,0,0,22.707,42.293Z" style="fill:#231e23"/><path d="M11,39a1,1,0,0,0,1,1h8a1,1,0,0,0,1-1V37a1,1,0,0,0-2,0v1H13V32h5a1,1,0,0,0,0-2H12a1,1,0,0,0-1,1Z" style="fill:#231e23"/><path d="M22.707,30.293a.9994.9994,0,0,0-1.414,0L17,34.5859,15.707,33.293a1,1,0,0,0-1.414,1.414l2,2a.9995.9995,0,0,0,1.414,0l5-5A.9994.9994,0,0,0,22.707,30.293Z" style="fill:#231e23"/><path d="M18,20a1,1,0,0,0,0-2H12a1,1,0,0,0-1,1v8a1,1,0,0,0,1,1h8a1,1,0,0,0,1-1V25a1,1,0,0,0-2,0v1H13V20Z" style="fill:#231e23"/><path d="M22.707,18.293a.9994.9994,0,0,0-1.414,0L17,22.5859,15.707,21.293a1,1,0,0,0-1.414,1.414l2,2a.9995.9995,0,0,0,1.414,0l5-5A.9994.9994,0,0,0,22.707,18.293Z" style="fill:#231e23"/><path d="M27,12a4,4,0,1,0-4-4A4.0045,4.0045,0,0,0,27,12Zm0-6a2,2,0,1,1-2,2A2.002,2.002,0,0,1,27,6Z" style="fill:#231e23"/><path d="M42,18H26a1,1,0,0,0,0,2H42a1,1,0,0,0,0-2Z" style="fill:#231e23"/><path d="M26,24H37a1,1,0,0,0,0-2H26a1,1,0,0,0,0,2Z" style="fill:#231e23"/><path d="M26,28H37a1,1,0,0,0,0-2H26a1,1,0,0,0,0,2Z" style="fill:#231e23"/><path d="M42,30H26a1,1,0,0,0,0,2H42a1,1,0,0,0,0-2Z" style="fill:#231e23"/><path d="M42,42H26a1,1,0,0,0,0,2H42a1,1,0,0,0,0-2Z" style="fill:#231e23"/><path d="M42,22H40a1,1,0,0,0,0,2h2a1,1,0,0,0,0-2Z" style="fill:#231e23"/><path d="M42,26H40a1,1,0,0,0,0,2h2a1,1,0,0,0,0-2Z" style="fill:#231e23"/><path d="M26,36H37a1,1,0,0,0,0-2H26a1,1,0,0,0,0,2Z" style="fill:#231e23"/><path d="M26,40H37a1,1,0,0,0,0-2H26a1,1,0,0,0,0,2Z" style="fill:#231e23"/><path d="M42,34H40a1,1,0,0,0,0,2h2a1,1,0,0,0,0-2Z" style="fill:#231e23"/><path d="M42,38H40a1,1,0,0,0,0,2h2a1,1,0,0,0,0-2Z" style="fill:#231e23"/><path d="M37,46H26a1,1,0,0,0,0,2H37a1,1,0,0,0,0-2Z" style="fill:#231e23"/><path d="M37,50H26a1,1,0,0,0,0,2H37a1,1,0,0,0,0-2Z" style="fill:#231e23"/><path d="M42,46H40a1,1,0,0,0,0,2h2a1,1,0,0,0,0-2Z" style="fill:#231e23"/><path d="M42,50H40a1,1,0,0,0,0,2h2a1,1,0,0,0,0-2Z" style="fill:#231e23"/></g></svg>